# xmcd
#
# Track frame offsets: 
#        150
#        6728
#        20759
#        27809
#        41725
#        61643
#        76353
#        93543
#        109638
#        121792
#        135600
#        152084
#        166240
#        181138
#        195219
#        207236
#        221981
#        237509
#        249414
#        263063
#        280450
#
# Disc length: 3988 seconds
#
# Revision: 0
# Processed by: cddbd v1.5.2PL0 Copyright (c) Steve Scherf et al.
# Submitted via: ExactAudioCopy v0.99pb5
#
DISCID=220f9215
DTITLE=Apathy - Wanna Snuggle?
DYEAR=2009
DGENRE=Hip-Hop
TTITLE0=Hell's Angel
TTITLE1=Money Orientated (feat. Emilio Lopez)
TTITLE2=Gov't Cheese
TTITLE3=On And Off The Mic (feat. Blacastan)
TTITLE4=Back In L.A. (feat. Ryu and Veze Skante)
TTITLE5=Shoot First (feat. B-Real and Celph Titled)
TTITLE6=I'm A Demigod
TTITLE7=True Love (feat. Phonte)
TTITLE8=Mind Ya Business (feat. Chip-Fu)
TTITLE9=Thinkin'
TTITLE10=This Is The Formula (feat. J-Live)
TTITLE11=Guys and Girls (feat. Blue Raspberry)
TTITLE12=Anyday (feat. King Magnetic)
TTITLE13=Candy (feat. Dose)
TTITLE14=Run, Run Away
TTITLE15=No Sad Tomorrow (feat. Holly Brook and Mike Mass)
TTITLE16=Rhode Island (feat. Emilio Lopez)
TTITLE17=What Goes Up
TTITLE18=Hard Times On Planet Earth
TTITLE19=Slave (feat. Motive)
TTITLE20=Victim (feat. Holly Brook)
EXTD=
EXTT0=
EXTT1=
EXTT2=
EXTT3=
EXTT4=
EXTT5=
EXTT6=
EXTT7=
EXTT8=
EXTT9=
EXTT10=
EXTT11=
EXTT12=
EXTT13=
EXTT14=
EXTT15=
EXTT16=
EXTT17=
EXTT18=
EXTT19=
EXTT20=
PLAYORDER=
